HIERARCHY
ROOT Hips
{
    OFFSET 0.000000 0.000000 0.000000
    CHANNELS 6 Xposition Yposition Zposition Zrotation Xrotation Yrotation
    JOINT Spine
    {
        OFFSET -0.000000 14.517291 0.000000
        CHANNELS 3 Zrotation Xrotation Yrotation
        JOINT Spine1
        {
            OFFSET -0.000000 37.558300 0.000000
            CHANNELS 3 Zrotation Xrotation Yrotation
            JOINT Neck
            {
                OFFSET -0.000000 37.404057 3.400369
                CHANNELS 3 Zrotation Xrotation Yrotation
                JOINT Head
                {
                    OFFSET -0.000000 24.785618 -3.540803
                    CHANNELS 3 Zrotation Xrotation Yrotation
                    End Site
                    {
                        OFFSET -0.000000 35.408028 0.000000
                    }
                }
            }
            JOINT LeftShoulder
            {
                OFFSET 6.992933 33.973492 -0.192664
                CHANNELS 3 Zrotation Xrotation Yrotation
                JOINT LeftArm
                {
                    OFFSET 21.527611 0.000000 0.000000
                    CHANNELS 3 Zrotation Xrotation Yrotation
                    JOINT LeftForeArm
                    {
                        OFFSET 56.353916 0.000000 0.000000
                        CHANNELS 3 Zrotation Xrotation Yrotation
                        JOINT LeftHand
                        {
                            OFFSET 47.774071 0.000000 0.000000
                            CHANNELS 3 Zrotation Xrotation Yrotation
                            End Site
                            {
                                OFFSET 26.556021 0.000000 0.000000
                            }
                        }
                    }
                }
            }
            JOINT RightShoulder
            {
                OFFSET -7.065357 33.973492 -0.192664
                CHANNELS 3 Zrotation Xrotation Yrotation
                JOINT RightArm
                {
                    OFFSET -21.527611 0.000000 0.000000
                    CHANNELS 3 Zrotation Xrotation Yrotation
                    JOINT RightForeArm
                    {
                        OFFSET -56.353916 0.000000 0.000000
                        CHANNELS 3 Zrotation Xrotation Yrotation
                        JOINT RightHand
                        {
                            OFFSET -47.774071 0.000000 0.000000
                            CHANNELS 3 Zrotation Xrotation Yrotation
                            End Site
                            {
                                OFFSET -26.556021 0.000000 0.000000
                            }
                        }
                    }
                }
            }
        }
    }
    JOINT LeftUpLeg
    {
        OFFSET 17.704014 0.000000 0.000000
        CHANNELS 3 Zrotation Xrotation Yrotation
        JOINT LeftLeg
        {
            OFFSET -0.000000 -81.181816 0.000000
            CHANNELS 3 Zrotation Xrotation Yrotation
            JOINT LeftFoot
            {
                OFFSET -0.000000 -62.821102 0.000000
                CHANNELS 3 Zrotation Xrotation Yrotation
                JOINT LeftToeBase
                {
                    OFFSET -0.000000 -11.507608 26.556021
                    CHANNELS 3 Zrotation Xrotation Yrotation
                    End Site
                    {
                        OFFSET -0.000000 0.000000 7.081605
                    }
                }
            }
        }
    }
    JOINT RightUpLeg
    {
        OFFSET -17.704014 0.000000 0.000000
        CHANNELS 3 Zrotation Xrotation Yrotation
        JOINT RightLeg
        {
            OFFSET -0.000000 -81.181816 0.000000
            CHANNELS 3 Zrotation Xrotation Yrotation
            JOINT RightFoot
            {
                OFFSET -0.000000 -62.821102 0.000000
                CHANNELS 3 Zrotation Xrotation Yrotation
                JOINT RightToeBase
                {
                    OFFSET -0.000000 -11.507608 26.556021
                    CHANNELS 3 Zrotation Xrotation Yrotation
                    End Site
                    {
                        OFFSET -0.000000 0.000000 7.081605
                    }
                }
            }
        }
    }
}
MOTION
Frames:    5
Frame Time:    0.008333
54.709900    154.074234    -4.959596    6.087291    4.058900    -55.782761    -0.440360    0.046207    3.353133    0.987351    0.197184    1.115389    16.004923    -2.255797    14.779849    -10.032867    4.519048    11.652685    12.705672    -1.964802    -17.315001    -9.911019    -20.628345    -44.014416    7.763178    -38.221722    -26.577602    -23.183510    -28.504551    -45.266449    -8.983545    1.537325    0.421532    34.539772    3.521665    76.851395    7.280034    -2.113796    105.647324    3.139920    -11.111983    20.544035    10.746215    -33.036263    5.176048    -26.491743    35.652645    5.407456    10.458167    -9.661785    42.825542    0.000000    0.000000    0.000000    -2.676364    4.733787    -5.584470    5.441138    31.471624    -0.159548    5.393896    -26.378208    -7.251621    0.000000    0.000000    0.000000    
54.360687    154.387863    -4.700838    6.078478    4.189062    -55.853634    -0.455265    0.016349    3.397599    1.042660    0.224297    1.129918    15.959857    -2.312148    14.780095    -9.899780    4.463676    11.661367    12.688602    -1.990933    -17.297297    -9.862341    -20.650715    -43.943638    7.650784    -38.193974    -26.695232    -23.218086    -28.468275    -45.304264    -8.967793    1.501920    0.452354    34.540871    3.542923    76.809044    7.256063    -2.163267    105.640694    3.114474    -11.133780    20.500891    10.772015    -32.819637    5.048754    -26.206438    35.392010    5.227125    10.196929    -9.613264    42.829449    0.000000    0.000000    0.000000    -2.856198    4.550598    -5.962860    5.543039    31.813580    -0.236541    6.311441    -25.393320    -6.485978    0.000000    0.000000    0.000000    
54.004902    154.700439    -4.443438    6.072104    4.326506    -55.919384    -0.480074    0.009310    3.433658    1.063215    0.192629    1.142193    16.111816    -2.317777    14.801189    -9.960657    4.396322    11.644228    12.774232    -2.062360    -17.290327    -9.868254    -20.578669    -43.861073    7.653082    -38.067715    -26.775208    -23.117645    -28.395884    -45.137260    -8.866119    1.486336    0.463933    34.505203    3.558106    76.769180    7.281829    -2.182068    105.626442    3.080937    -11.189497    20.501493    10.760992    -32.579834    4.941219    -25.898987    35.159039    4.981002    10.051390    -9.639536    42.922256    0.000000    0.000000    0.000000    -3.038934    4.348895    -6.280859    5.702073    32.062458    -0.274203    7.127580    -24.291176    -5.852020    0.000000    0.000000    0.000000    
53.638927    155.011017    -4.209512    6.043115    4.468910    -55.986813    -0.506878    -0.010820    3.455053    1.145475    0.213033    1.149036    16.090139    -2.374927    14.791299    -9.859931    4.354986    11.636169    12.766273    -2.063418    -17.253763    -9.746300    -20.506912    -43.768192    7.670222    -38.146893    -26.840681    -23.150888    -28.454588    -45.180984    -8.878002    1.492664    0.498985    34.545158    3.556937    76.731812    7.270278    -2.213231    105.597900    3.064770    -11.204337    20.456850    10.796192    -32.321430    4.901350    -25.596046    34.931450    4.726386    9.906297    -9.658027    42.983387    0.000000    0.000000    0.000000    -3.210495    4.243415    -6.533303    5.889970    32.231277    -0.319703    7.895740    -23.273567    -5.226027    0.000000    0.000000    0.000000    
53.272484    155.314423    -3.957973    6.028808    4.602099    -56.029320    -0.537953    -0.048136    3.458834    1.211225    0.195222    1.150510    16.156773    -2.224085    14.781823    -9.912965    4.136192    11.612062    12.746151    -2.067319    -17.285873    -9.671695    -20.507944    -43.648304    7.609078    -38.084347    -26.914932    -23.158478    -28.379097    -45.232246    -8.845626    1.508274    0.544768    34.549427    3.591594    76.675575    7.307843    -2.240935    105.563911    3.079495    -11.271266    20.495573    10.794410    -32.066074    4.810381    -25.307653    34.679165    4.500016    9.771043    -9.675274    43.050705    0.000000    0.000000    0.000000    -3.403920    4.043933    -6.857837    6.011585    32.585327    -0.418567    8.815479    -22.201212    -4.503785    0.000000    0.000000    0.000000    
